<svg id="Vrstva_1" data-name="Vrstva 1" xmlns="http://www.w3.org/2000/svg" viewBox="0 0 30 30"><defs><style>.cls-1{fill:#fff;}</style></defs><title>Kreslicí plátno 1</title><path class="cls-1" d="M24.2,0H5.8A5.8,5.8,0,0,0,0,5.8V24.2A5.8,5.8,0,0,0,5.8,30H24.2A5.8,5.8,0,0,0,30,24.2V5.8A5.8,5.8,0,0,0,24.2,0Zm1.67,3.45h.66V8.54H21.46l0-5.08ZM10.72,11.92a5.27,5.27,0,1,1-1,3.08A5.27,5.27,0,0,1,10.72,11.92ZM27.07,24.2a2.86,2.86,0,0,1-2.87,2.87H5.8A2.87,2.87,0,0,1,2.92,24.2V11.92H7.4A8.09,8.09,0,0,0,6.8,15a8.2,8.2,0,1,0,15.8-3.08h4.47Z"/></svg>