<svg id="Vrstva_1" data-name="Vrstva 1" xmlns="http://www.w3.org/2000/svg" viewBox="0 0 90 90"><defs><style>.cls-1{fill:#9c9b9b;}.cls-2{fill:#fff;}.cls-3{fill:none;stroke:#fff;stroke-linecap:round;stroke-linejoin:round;stroke-width:0.5px;}</style></defs><title>Kreslicí plátno 1</title><rect class="cls-1" width="90" height="90"/><path class="cls-2" d="M31.25,8.79h3.61c2.17,0,3.6,1.15,3.6,3.05v0C38.46,14,36.73,15,34.68,15H32.34v3.4H31.25ZM34.72,14c1.6,0,2.64-.85,2.64-2.12v0c0-1.37-1-2.09-2.59-2.09H32.34V14Z"/><path class="cls-2" d="M39.59,16.36v0c0-1.53,1.24-2.33,3-2.33a7.46,7.46,0,0,1,2.18.31v-.22c0-1.27-.77-1.93-2.11-1.93a5,5,0,0,0-2.16.51l-.32-.87a5.85,5.85,0,0,1,2.59-.6,3.15,3.15,0,0,1,2.3.78,2.79,2.79,0,0,1,.74,2.09v4.35h-1V17.36a3.14,3.14,0,0,1-2.56,1.21A2.38,2.38,0,0,1,39.59,16.36Zm5.23-.55v-.66a7,7,0,0,0-2.08-.31c-1.32,0-2.08.58-2.08,1.43v0c0,.9.83,1.42,1.79,1.42A2.13,2.13,0,0,0,44.82,15.81Zm-1-7.57,1.1.51-1.57,1.48H42.5Z"/><path class="cls-2" d="M48.1,11.31h1.06v1.85a3,3,0,0,1,2.9-2v1.14H52c-1.56,0-2.82,1.12-2.82,3.27v2.83H48.1Z"/><path class="cls-2" d="M52.79,16.36v0c0-1.53,1.24-2.33,3-2.33a7.46,7.46,0,0,1,2.18.31v-.22c0-1.27-.77-1.93-2.11-1.93a5,5,0,0,0-2.16.51l-.32-.87A5.82,5.82,0,0,1,56,11.2a3.15,3.15,0,0,1,2.3.78,2.83,2.83,0,0,1,.74,2.09v4.35H58V17.36a3.14,3.14,0,0,1-2.56,1.21A2.38,2.38,0,0,1,52.79,16.36ZM58,15.81v-.66a7,7,0,0,0-2.08-.31c-1.32,0-2.08.58-2.08,1.43v0c0,.9.83,1.42,1.79,1.42A2.13,2.13,0,0,0,58,15.81Z"/><path class="cls-2" d="M61.52,31.74l-12.75,22h0l-2.22,4L38,54.94l8.29-1.82L59.07,31l.19-.23C60.83,29.72,61.4,31.35,61.52,31.74Z"/><path class="cls-2" d="M59.55,63l-.11,2.84-4.75,3.81L31.82,61.07V57.28l4,1.53h0L46.1,62.58l8.11,3a.77.77,0,0,0,.3.06.88.88,0,0,0,.42-.11Z"/><polygon class="cls-2" points="59.34 62.03 54.51 64.76 47.26 62.04 51.29 59.4 59.34 62.03"/><polygon class="cls-2" points="50.77 57.01 50.77 58.66 46.2 61.64 36.69 58.18 36.69 55.48 46.98 58.84 49.32 54.64 50.77 57.01"/><polygon class="cls-2" points="35.77 57.03 35.77 57.83 33.7 57.03 35.77 57.03"/><path class="cls-2" d="M39.2,73.22a1.53,1.53,0,0,1-.06,3,1.65,1.65,0,0,1-.38,0,1.28,1.28,0,0,1-1.08.59,1.25,1.25,0,0,1-1.09-.62A1.31,1.31,0,0,1,34.83,75a1.3,1.3,0,0,1,.87-1.23h0v0s0,0,0,0a1.78,1.78,0,0,1,3.51-.44Z"/><path class="cls-2" d="M23.3,65.43a2.3,2.3,0,0,1,2-1.23,2.26,2.26,0,0,1,2.07,1.32,2.3,2.3,0,0,1,1-.24A2.36,2.36,0,0,1,29,69.92h0l0,.27h0v0a3.29,3.29,0,0,1-6.53.6h-.09a2.78,2.78,0,0,1,0-5.56A2.58,2.58,0,0,1,23.3,65.43Z"/><path class="cls-3" d="M25,64.81c.16-.31,10-1.63,10-1.63"/><line class="cls-3" x1="46.06" y1="69.06" x2="40.3" y2="75.37"/><line class="cls-3" x1="44.13" y1="68.5" x2="38.99" y2="71.46"/><line class="cls-3" x1="40.91" y1="65.8" x2="31.37" y2="69.61"/></svg>