<svg id="Vrstva_1" data-name="Vrstva 1" xmlns="http://www.w3.org/2000/svg" viewBox="0 0 182 30"><defs><style>.cls-1{fill:#00abc8;}</style></defs><title>Kreslicí plátno 1</title><path class="cls-1" d="M175.46,12.71a2,2,0,1,1-2,2,2,2,0,0,1,2-2m-6.19,0a2,2,0,1,1-2,2A2,2,0,0,1,169.27,12.71ZM179,6.86a2,2,0,1,1-2,2A2,2,0,0,1,179,6.86Zm-6.51,0a2,2,0,1,1-2,2A2,2,0,0,1,172.5,6.86Zm-6.79,0a2,2,0,1,1-2,2A2,2,0,0,1,165.71,6.86ZM175.46,1a2,2,0,1,1-2,2A2,2,0,0,1,175.46,1Zm-6.19,0a2,2,0,1,1-2,2A2,2,0,0,1,169.27,1ZM151.18,27.59h4.31v-7c0-1.81.34-3.56,2.58-3.56s2.24,2.07,2.24,3.68v6.84h4.31v-7.7c0-3.74-.8-6.61-5.17-6.61a4.52,4.52,0,0,0-4.08,2.24h-.06v-1.9h-4.13Zm-6.67-6.12v.92c0,1.72-1.58,2.61-3.27,2.61-1,0-2-.49-2-1.52,0-1.9,2.93-2,4.25-2Zm0,6.12h4v-7.1c0-4.65-1.36-7.21-6.38-7.21A9,9,0,0,0,136,15.52l2.3,2.36a4.58,4.58,0,0,1,3.5-1.67,2.57,2.57,0,0,1,2.76,2.5c-3.59,0-9.45.09-9.45,4.91,0,2.82,2.36,4.31,5,4.31a5,5,0,0,0,4.42-2.1h.06ZM123.14,19a2.88,2.88,0,0,1,3-2.65A2.6,2.6,0,0,1,128.83,19ZM129.46,23a3.68,3.68,0,0,1-3.08,1.7,3.22,3.22,0,0,1-3.24-2.7h10V20.61c0-4.46-2.52-7.33-6.55-7.33-4.3,0-7.75,2.87-7.75,7.33s3.45,7.32,7.75,7.32a7.55,7.55,0,0,0,5.89-2.76Zm-17.61,4.63h4.31V5.87h-4.31ZM109.4,9.72a8.72,8.72,0,0,0-6.86-3c-6.35,0-11,4.16-11,10.69s4.63,10.68,11,10.68a8.88,8.88,0,0,0,7.35-3.53l-3.73-2.78A4.89,4.89,0,0,1,102,24c-3.25,0-5.74-2.76-5.74-6.55s2.49-6.55,5.89-6.55A4.81,4.81,0,0,1,106,12.53ZM85.59,14.14H81.71V10.35h-1.9v3.79H77v1.73h2.84v8.47c0,3,1.9,3.59,3.34,3.59a6.27,6.27,0,0,0,2.55-.49l-.08-1.75a4.22,4.22,0,0,1-2,.52c-1.17,0-2-.4-2-2.42V15.87h3.88Zm-9.45,2a6.54,6.54,0,0,0-4.92-2.32,6.7,6.7,0,0,0-7.12,7.07,6.71,6.71,0,0,0,7.12,7.06,6.54,6.54,0,0,0,4.92-2.32l-1.56-1.18a4,4,0,0,1-3.36,1.78c-3.13.06-5.06-2.27-5.06-5.34s1.93-5.41,5.06-5.35a4,4,0,0,1,3.36,1.78ZM50.19,19.83a4.73,4.73,0,0,1,4.71-4.31,4.06,4.06,0,0,1,4.37,4.31Zm11.15,1.55v-.86c0-3.68-2.36-6.69-6.44-6.72a6.78,6.78,0,0,0-6.78,7.06,6.83,6.83,0,0,0,7,7.07,7,7,0,0,0,5.77-2.84l-1.46-1.21a5,5,0,0,1-9.26-2.5ZM46.57,14.14H43.38V10.69c0-1.95.35-3.44,2.45-3.44a5.91,5.91,0,0,1,1.46.2l.35-1.73A8.45,8.45,0,0,0,46,5.52c-2.73,0-4.51,1.38-4.51,4.94v3.68H38.64v1.73h2.85V27.59h1.89V15.87h3.19ZM31,27.59h1.9V20A4.2,4.2,0,0,1,37,15.69a3.16,3.16,0,0,1,1.1.15L38.5,14a4.91,4.91,0,0,0-1.41-.17,4.44,4.44,0,0,0-4.31,2.84h-.06v-2.5H30.86c.06,2,.11,3,.11,4.2ZM16.18,19.83a4.73,4.73,0,0,1,4.71-4.31,4.06,4.06,0,0,1,4.37,4.31Zm11.14,1.55v-.86c0-3.68-2.35-6.69-6.43-6.72a6.78,6.78,0,0,0-6.78,7.06,6.82,6.82,0,0,0,7,7.07,7,7,0,0,0,5.78-2.84l-1.47-1.21a5,5,0,0,1-9.25-2.5ZM3.07,9.14H6.4c3.71,0,5,1.58,5,3.54s-1.26,3.56-5,3.56H3.07ZM1,27.59H3.07V18.14H6.92c4.14,0,6.69-1.81,6.69-5.46S11.06,7.25,6.92,7.25H1Z"/></svg>