<svg id="Vrstva_2" data-name="Vrstva 2" xmlns="http://www.w3.org/2000/svg" viewBox="0 0 90 90"><defs><style>.cls-1{fill:#54565a;}.cls-2{fill:#fff;}</style></defs><title>Kreslicí plátno 1</title><rect class="cls-1" width="90" height="90"/><path class="cls-2" d="M15.07,8.79h1.21l3.43,8.3,3.44-8.3h1.17l-4.14,9.7h-1Z"/><path class="cls-2" d="M25.08,20.31l.36-.84a2.2,2.2,0,0,0,1.11.26c.63,0,1-.33,1.46-1.33l-3.23-7.09H26l2.58,5.93,2.29-5.93H32l-3,7.35c-.61,1.47-1.29,2-2.37,2A3.27,3.27,0,0,1,25.08,20.31Z"/><path class="cls-2" d="M32.76,17.51l.53-.75a4.25,4.25,0,0,0,2.47.91c.85,0,1.47-.44,1.47-1.13v0c0-.72-.84-1-1.77-1.25-1.12-.32-2.36-.71-2.36-2v0a2.15,2.15,0,0,1,2.42-2,4.85,4.85,0,0,1,2.56.79l-.48.8a4,4,0,0,0-2.1-.69c-.84,0-1.38.44-1.38,1v0c0,.67.88.93,1.83,1.22s2.29.76,2.29,2v0c0,1.35-1.12,2.13-2.54,2.13A4.89,4.89,0,0,1,32.76,17.51Z"/><path class="cls-2" d="M39.67,16.36v0c0-1.53,1.24-2.33,3-2.33a7.34,7.34,0,0,1,2.17.31v-.22c0-1.27-.77-1.93-2.1-1.93a5,5,0,0,0-2.16.51l-.32-.87a5.79,5.79,0,0,1,2.59-.6,3.17,3.17,0,0,1,2.3.78,2.83,2.83,0,0,1,.74,2.09v4.35h-1V17.36a3.08,3.08,0,0,1-2.56,1.21A2.38,2.38,0,0,1,39.67,16.36Zm5.23-.55v-.66a7.37,7.37,0,0,0-2.08-.31c-1.32,0-2.08.58-2.08,1.44v0c0,.9.83,1.42,1.79,1.42A2.13,2.13,0,0,0,44.9,15.81Zm-1-7.57,1.1.51L43.4,10.23h-.83Z"/><path class="cls-2" d="M47.2,11.31h1.17l2.39,5.9,2.41-5.9h1.14l-3.1,7.17h-.93Z"/><path class="cls-2" d="M55.1,16.36v0c0-1.53,1.23-2.33,3-2.33a7.34,7.34,0,0,1,2.17.31v-.22c0-1.27-.77-1.93-2.1-1.93a5,5,0,0,0-2.16.51l-.32-.87a5.79,5.79,0,0,1,2.59-.6,3.17,3.17,0,0,1,2.3.78,2.83,2.83,0,0,1,.74,2.09v4.35h-1V17.36a3.1,3.1,0,0,1-2.56,1.21A2.38,2.38,0,0,1,55.1,16.36Zm5.23-.55v-.66a7.37,7.37,0,0,0-2.08-.31c-1.32,0-2.08.58-2.08,1.44v0c0,.9.83,1.42,1.79,1.42A2.13,2.13,0,0,0,60.33,15.81Zm-1-7.57,1.1.51-1.56,1.48H58Z"/><path class="cls-2" d="M63.6,11.31h1.06v1.24a2.68,2.68,0,0,1,2.44-1.39A2.59,2.59,0,0,1,69.82,14v4.42H68.76V14.27a1.89,1.89,0,0,0-2-2.15,2.09,2.09,0,0,0-2.13,2.23v4.07H63.6Z"/><path class="cls-2" d="M72.18,11.31h1.06v7.11H72.18Zm1.4-3.07,1.1.51-1.57,1.48h-.82Z"/><path class="cls-2" d="M63.53,31.74l-12.74,22h0l-2.22,4L40,54.94l8.29-1.82L61.09,31l.19-.23C62.85,29.72,63.42,31.35,63.53,31.74Z"/><path class="cls-2" d="M61.57,63l-.11,2.84-4.75,3.81L33.84,61.07V57.28l3.95,1.53h0l10.33,3.76,8.11,3a.77.77,0,0,0,.3.06.88.88,0,0,0,.42-.11Z"/><polygon class="cls-2" points="61.36 62.03 56.52 64.76 49.28 62.04 53.31 59.4 61.36 62.03"/><polygon class="cls-2" points="52.79 57.01 52.79 58.66 48.22 61.64 38.7 58.18 38.7 55.48 49 58.84 51.34 54.64 52.79 57.01"/><polygon class="cls-2" points="37.79 57.03 37.79 57.83 35.72 57.03 37.79 57.03"/><path class="cls-2" d="M52.59,70.62a1.16,1.16,0,0,1,1.7-.32c.66.53-.17,1.39-.17,1.39l-.14.18c-.11.14-.26.28-.45.48a9.48,9.48,0,0,1-.7.65c-.28.25-.62.48-1,.75s-.78.52-1.23.75c-.22.11-.45.25-.69.36l-.73.33c-.25.12-.51.21-.78.31l-.8.28L46.8,76a6,6,0,0,1-.84.2l-.84.16-.42.08-.42,0-.83.08-.41,0h-.4l-1.54,0-1.36-.07-.61,0-.54-.07-.88-.11-.77-.1.78,0,.88,0,.54,0,.6,0,1.35-.06L42.58,76,43,76l.38-.08.8-.17.39-.08.4-.12.79-.23A5.89,5.89,0,0,0,46.5,75l.75-.29L48,74.4a7.24,7.24,0,0,0,.68-.35l.64-.37c.21-.13.4-.27.59-.4.38-.25.7-.54,1-.78s.56-.5.77-.74.39-.43.54-.6a3.59,3.59,0,0,0,.28-.39A1,1,0,0,0,52.59,70.62Z"/><path class="cls-2" d="M41.93,67.32a1.16,1.16,0,0,1,1.7-.32c.66.52-.17,1.38-.17,1.38l-.14.18c-.12.14-.26.28-.45.48a8.08,8.08,0,0,1-.71.65c-.27.25-.61.48-1,.75s-.77.52-1.22.75c-.22.12-.45.25-.69.36l-.74.33a7.72,7.72,0,0,1-.77.31l-.8.28-.83.22a6,6,0,0,1-.84.2l-.85.16-.41.08-.43,0-.83.08-.4,0H32l-1.53,0-1.37-.07-.6,0-.54-.06-.88-.12-.77-.1.77,0,.89,0,.54,0,.6,0,1.35-.07,1.49-.19.38,0,.39-.08.79-.17.4-.08.4-.11.78-.24a5,5,0,0,0,.77-.27l.76-.29.71-.34a7.43,7.43,0,0,0,.69-.35l.64-.37c.21-.13.39-.27.59-.4.38-.25.7-.53,1-.78s.56-.5.77-.74.39-.43.54-.6a3.59,3.59,0,0,0,.28-.39Z"/><path class="cls-2" d="M32.89,63.42a1.16,1.16,0,0,1,1.7-.32c.66.53-.17,1.38-.17,1.38l-.15.18c-.11.14-.25.29-.44.49a8.08,8.08,0,0,1-.71.65c-.27.25-.61.48-1,.75s-.77.52-1.22.75c-.23.11-.45.24-.69.36L29.5,68a6.47,6.47,0,0,1-.77.3l-.8.29-.83.22a6.39,6.39,0,0,1-.84.2l-.85.16-.42.07-.42,0-.83.08-.4,0h-.41l-1.53,0L20,69.38l-.6,0-.54-.07L18,69.16l-.76-.1.77,0,.89,0,.54,0,.6,0L21.39,69l1.48-.19.39,0,.39-.08.79-.17.4-.08.39-.12L26,68.1a6.36,6.36,0,0,0,.77-.27l.76-.29.71-.34c.24-.12.47-.22.69-.35l.64-.38c.2-.12.39-.26.58-.39.39-.25.71-.54,1-.78s.57-.5.78-.74.39-.43.54-.6.24-.32.28-.39Z"/></svg>