<svg id="Vrstva_3" data-name="Vrstva 3" xmlns="http://www.w3.org/2000/svg" viewBox="0 0 90 90"><defs><style>.cls-1{fill:#00abc8;}.cls-2{fill:#fff;}</style></defs><title>Kreslicí plátno 1</title><rect class="cls-1" width="90" height="90"/><path class="cls-2" d="M19.35,8.79h1.21L24,17.09l3.45-8.3H28.6l-4.15,9.7h-1Z"/><path class="cls-2" d="M29.35,20.31l.36-.84a2.21,2.21,0,0,0,1.12.26c.63,0,1-.33,1.45-1.33l-3.23-7.09h1.17l2.59,5.93,2.28-5.93h1.13l-3,7.35c-.6,1.47-1.29,2-2.36,2A3.28,3.28,0,0,1,29.35,20.31Z"/><path class="cls-2" d="M38.27,16.54v-4.3h-1v-.93h1V9.16h1.06v2.15h2.26v.93H39.33V16.4a1,1,0,0,0,1.2,1.18,2.2,2.2,0,0,0,1-.25v.91a2.58,2.58,0,0,1-1.28.31A1.82,1.82,0,0,1,38.27,16.54Z"/><path class="cls-2" d="M43.56,11.31h1.06v7.11H43.56ZM45,8.24l1.1.51-1.57,1.48h-.82Z"/><path class="cls-2" d="M47.08,11.31h1.06v1.85a3,3,0,0,1,2.9-2v1.15H51c-1.55,0-2.82,1.11-2.82,3.26v2.83H47.08Z"/><path class="cls-2" d="M51.77,16.36v0c0-1.53,1.24-2.33,3-2.33a7.41,7.41,0,0,1,2.18.31v-.22c0-1.27-.77-1.93-2.11-1.93a5,5,0,0,0-2.16.51l-.31-.87A5.77,5.77,0,0,1,55,11.2a3.15,3.15,0,0,1,2.3.78A2.8,2.8,0,0,1,58,14.07v4.35H57V17.36a3.11,3.11,0,0,1-2.56,1.21A2.38,2.38,0,0,1,51.77,16.36ZM57,15.81v-.66a7.31,7.31,0,0,0-2.08-.31c-1.32,0-2.07.58-2.07,1.44v0c0,.9.82,1.42,1.78,1.42A2.13,2.13,0,0,0,57,15.81ZM56,8.24l1.1.51L55.5,10.23h-.82Z"/><path class="cls-2" d="M60.28,11.31h1.06v1.24a2.68,2.68,0,0,1,2.43-1.39A2.59,2.59,0,0,1,66.5,14v4.42H65.44V14.27a1.9,1.9,0,0,0-2-2.15,2.09,2.09,0,0,0-2.13,2.23v4.07H60.28Z"/><path class="cls-2" d="M68.85,11.31h1.06v7.11H68.85Zm1.41-3.07,1.1.51-1.57,1.48H69Z"/><path class="cls-2" d="M62.17,31.74l-12.75,22h0l-2.22,4-8.58-2.8,8.28-1.82L59.73,31l.18-.23C61.49,29.72,62.05,31.35,62.17,31.74Z"/><path class="cls-2" d="M60.2,63l-.11,2.84-4.75,3.81L32.47,61.07V57.28l4,1.53h0l10.33,3.76,8.11,3a.8.8,0,0,0,.3.06,1,1,0,0,0,.43-.11Z"/><polygon class="cls-2" points="60 62.03 55.16 64.76 47.91 62.04 51.94 59.4 60 62.03"/><path class="cls-2" d="M54.53,70.28l.74.28c-.9.5-3.63,2.24-3.85,4.67-.15,1.74,1,3.53,3.47,5.31l-.35.5c-2.65-1.92-3.89-3.89-3.72-5.87C51,72.76,53.31,71,54.53,70.28Z"/><polygon class="cls-2" points="51.42 57.01 51.42 58.66 46.85 61.64 37.34 58.18 37.34 55.48 47.63 58.84 49.97 54.64 51.42 57.01"/><path class="cls-2" d="M45.29,69.65a.57.57,0,0,1,.81.8l-6.23,6.23a.57.57,0,0,1-.81-.8Z"/><path class="cls-2" d="M40.28,71.93a.57.57,0,0,1,.8.8L35.61,78.2a.57.57,0,0,1-.8-.8Z"/><path class="cls-2" d="M36.17,65.39a.57.57,0,0,1,.81.81l-7.45,7.44a.57.57,0,0,1-.8-.8Z"/><polygon class="cls-2" points="36.42 57.03 36.42 57.83 34.35 57.03 36.42 57.03"/><path class="cls-2" d="M32.83,71.47a.57.57,0,0,1,.81.81l-3.35,3.34a.57.57,0,0,1-.8-.81Z"/><path class="cls-2" d="M31.56,61.22l.25.58c-7,5.47-16.61,14.23-15,16.59l-.5.35C14,75.31,31.49,61.27,31.56,61.22Z"/></svg>